<svg width="24" height="24" viewBox="0 0 24 24" fill="none" xmlns="http://www.w3.org/2000/svg">
<path d="M9 2.40002C4.032 2.40002 0 5.62802 0 9.60002C0 11.868 1.296 13.872 3.336 15.192L2.4 18L5.4 16.2C6.468 16.572 7.644 16.8 8.892 16.8C8.57163 16.0402 8.40443 15.2246 8.4 14.4C8.4 10.428 12.156 7.20002 16.8 7.20002C17.028 7.20002 17.256 7.20002 17.472 7.23602C16.248 4.42802 12.936 2.40002 9 2.40002ZM5.4 5.40002C5.71826 5.40002 6.02348 5.52645 6.24853 5.7515C6.47357 5.97654 6.6 6.28176 6.6 6.60002C6.6 6.91828 6.47357 7.22351 6.24853 7.44855C6.02348 7.6736 5.71826 7.80002 5.4 7.80002C5.08174 7.80002 4.77652 7.6736 4.55147 7.44855C4.32643 7.22351 4.2 6.91828 4.2 6.60002C4.2 6.28176 4.32643 5.97654 4.55147 5.7515C4.77652 5.52645 5.08174 5.40002 5.4 5.40002M11.4 5.40002C11.7183 5.40002 12.0235 5.52645 12.2485 5.7515C12.4736 5.97654 12.6 6.28176 12.6 6.60002C12.6 6.91828 12.4736 7.22351 12.2485 7.44855C12.0235 7.6736 11.7183 7.80002 11.4 7.80002C11.0817 7.80002 10.7765 7.6736 10.5515 7.44855C10.3264 7.22351 10.2 6.91828 10.2 6.60002C10.2 6.28176 10.3264 5.97654 10.5515 5.7515C10.7765 5.52645 11.0817 5.40002 11.4 5.40002M16.8 8.40002C12.828 8.40002 9.6 11.088 9.6 14.4C9.6 17.712 12.828 20.4 16.8 20.4C17.604 20.4 18.372 20.304 19.092 20.1L21.6 21.6L20.856 19.356C22.74 18.264 24 16.452 24 14.4C24 11.088 20.772 8.40002 16.8 8.40002ZM14.4 11.4C14.7183 11.4 15.0235 11.5265 15.2485 11.7515C15.4736 11.9765 15.6 12.2818 15.6 12.6C15.6 12.9183 15.4736 13.2235 15.2485 13.4486C15.0235 13.6736 14.7183 13.8 14.4 13.8C14.0817 13.8 13.7765 13.6736 13.5515 13.4486C13.3264 13.2235 13.2 12.9183 13.2 12.6C13.2 12.2818 13.3264 11.9765 13.5515 11.7515C13.7765 11.5265 14.0817 11.4 14.4 11.4M19.2 11.4C19.5183 11.4 19.8235 11.5265 20.0485 11.7515C20.2736 11.9765 20.4 12.2818 20.4 12.6C20.4 12.9183 20.2736 13.2235 20.0485 13.4486C19.8235 13.6736 19.5183 13.8 19.2 13.8C18.8817 13.8 18.5765 13.6736 18.3515 13.4486C18.1264 13.2235 18 12.9183 18 12.6C18 12.2818 18.1264 11.9765 18.3515 11.7515C18.5765 11.5265 18.8817 11.4 19.2 11.4Z" fill="#5C89A1"/>
</svg>
