<svg width="43" height="44" viewBox="0 0 43 44" fill="none" xmlns="http://www.w3.org/2000/svg">
<path d="M4.55354 21.7462C4.60423 21.6209 4.69115 21.5135 4.80317 21.4378C4.9152 21.3621 5.04724 21.3215 5.18244 21.3212H12.6613V16.5609C12.6613 16.3805 12.733 16.2075 12.8605 16.08C12.988 15.9525 13.1609 15.8808 13.3412 15.8808H29.6588C29.8391 15.8808 30.012 15.9525 30.1395 16.08C30.267 16.2075 30.3387 16.3805 30.3387 16.5609V21.3212H37.8176C37.9528 21.3215 38.0848 21.3621 38.1968 21.4378C38.3089 21.5135 38.3958 21.6209 38.4465 21.7462C38.4998 21.8689 38.5137 22.0052 38.4863 22.1361C38.4589 22.2671 38.3915 22.3863 38.2935 22.4773L21.9759 38.7985C21.9141 38.8622 21.8402 38.9129 21.7584 38.9475C21.6767 38.9822 21.5888 39 21.5 39C21.4112 39 21.3233 38.9822 21.2416 38.9475C21.1598 38.9129 21.0859 38.8622 21.0241 38.7985L4.70651 22.4773C4.60847 22.3863 4.5411 22.2671 4.5137 22.1361C4.4863 22.0052 4.50022 21.8689 4.55354 21.7462ZM21.5 37.3534L36.1688 22.6813H29.6588C29.4785 22.6813 29.3055 22.6097 29.178 22.4821C29.0505 22.3546 28.9789 22.1816 28.9789 22.0013V17.2409H14.0211V22.0013C14.0211 22.1816 13.9495 22.3546 13.822 22.4821C13.6945 22.6097 13.5215 22.6813 13.3412 22.6813H6.83119L21.5 37.3534ZM30.3387 5.68005C30.3387 5.49969 30.267 5.32672 30.1395 5.19918C30.012 5.07165 29.8391 5 29.6588 5H13.3412C13.1609 5 12.988 5.07165 12.8605 5.19918C12.733 5.32672 12.6613 5.49969 12.6613 5.68005C12.6613 5.86041 12.733 6.03338 12.8605 6.16092C12.988 6.28845 13.1609 6.3601 13.3412 6.3601H29.6588C29.8391 6.3601 30.012 6.28845 30.1395 6.16092C30.267 6.03338 30.3387 5.86041 30.3387 5.68005ZM30.3387 11.1205C30.3387 10.9401 30.267 10.7671 30.1395 10.6396C30.012 10.512 29.8391 10.4404 29.6588 10.4404H13.3412C13.1609 10.4404 12.988 10.512 12.8605 10.6396C12.733 10.7671 12.6613 10.9401 12.6613 11.1205C12.6613 11.3008 12.733 11.4738 12.8605 11.6013C12.988 11.7289 13.1609 11.8005 13.3412 11.8005H29.6588C29.8391 11.8005 30.012 11.7289 30.1395 11.6013C30.267 11.4738 30.3387 11.3008 30.3387 11.1205Z" fill="#303030"/>
</svg>
