<svg width="163" height="48" viewBox="0 0 163 48" fill="none" xmlns="http://www.w3.org/2000/svg">
<path d="M32.164 12.052C33.176 12.052 33.352 11.128 33.352 9.456C33.352 7.828 33.176 6.904 32.164 6.904H6.776V20.808C6.776 21.688 7.7 23.052 8.624 24.02C9.592 24.988 11.22 26.088 12.364 26.088H17.38V32.776H1.54V37.924H37.972C39.16 37.924 39.336 37.088 39.336 35.372C39.336 33.7 39.16 32.776 37.972 32.776H23.452V26.088H32.604C33.616 26.088 33.792 25.164 33.792 23.492C33.792 21.864 33.616 20.94 32.604 20.94H13.816C13.2 20.94 12.848 20.588 12.848 19.928V12.052H32.164ZM75.8423 4.308H69.7703V40.696C69.7703 41.708 70.9143 41.928 72.7623 41.928C74.7423 41.928 75.8423 41.664 75.8423 40.652V4.308ZM62.7743 32.776C63.6543 33.524 64.4023 32.82 65.5463 31.632C66.8223 30.268 67.3063 29.608 66.4263 28.816C62.5543 25.164 57.7583 19.356 57.7583 13.592V6.904H51.5103V13.68C51.5103 19.532 46.9783 25.208 42.4023 29.344C41.5663 30.136 42.2263 31.06 43.3263 32.204C44.6023 33.568 45.4823 34.008 46.3623 33.348C49.2663 31.016 53.1823 26.836 54.9863 22.92C56.6583 26.572 59.9143 30.224 62.7743 32.776ZM82.9434 19.972C82.9434 20.852 83.7794 22.216 84.7034 23.184C85.6714 24.152 87.2994 25.252 88.4434 25.252H103.931C104.943 25.252 105.119 24.504 105.119 22.832C105.119 21.204 104.943 20.5 103.931 20.5H89.7634C89.1474 20.5 88.7954 20.148 88.7954 19.488V17.112H102.083V6.42C102.083 5.056 101.291 4.44 99.9714 4.44H82.9434V9.192H96.2314V12.36H82.9434V19.972ZM108.595 26C108.595 27.012 109.695 27.32 111.587 27.32C113.215 27.32 114.579 27.144 114.579 26V16.848H121.223V11.788H114.579V3.868H108.595V26ZM108.155 43.512C108.155 44.568 109.299 44.744 111.147 44.744C112.775 44.744 114.139 44.7 114.139 43.512V31.72C114.139 29.872 113.347 29.212 111.851 29.212H87.8274V34.184H108.155V43.512ZM152.978 8.048C154.166 8.048 154.342 7.652 154.342 5.936C154.342 4.264 154.166 3.824 152.978 3.824H128.646V15.66C128.646 16.452 129.394 17.508 130.406 18.476C131.242 19.268 132.342 20.016 133.31 20.016H138.634V22.832H122.97V27.1H159.402C160.59 27.1 160.766 26.704 160.766 24.988C160.766 23.316 160.59 22.832 159.402 22.832H144.706V20.016H153.418C154.606 20.016 154.782 19.62 154.782 17.904C154.782 16.232 154.606 15.792 153.418 15.792H135.114C134.718 15.792 134.498 15.616 134.498 15.132V13.944H152.538C153.726 13.944 153.902 13.636 153.902 11.92C153.902 10.248 153.726 9.852 152.538 9.852H134.498V8.048H152.978ZM153.154 37C153.154 31.456 147.566 28.684 141.626 28.684C135.686 28.684 130.098 31.456 130.098 37C130.098 42.544 135.686 45.316 141.626 45.316C147.566 45.316 153.154 42.544 153.154 37ZM147.17 37C147.17 39.244 144.882 40.652 141.67 40.652C138.37 40.652 136.082 39.244 136.082 37C136.082 34.756 138.37 33.348 141.67 33.348C144.882 33.348 147.17 34.756 147.17 37Z" fill="#303030"/>
</svg>
