<svg width="216" height="33" viewBox="0 0 216 33" fill="none" xmlns="http://www.w3.org/2000/svg">
<path d="M3.73633 0.71875H9.19336L17.2285 23.6855L25.2637 0.71875H30.7207L19.4199 32H15.0371L3.73633 0.71875ZM0.792969 0.71875H6.22852L7.2168 23.1055V32H0.792969V0.71875ZM28.2285 0.71875H33.6855V32H27.2402V23.1055L28.2285 0.71875ZM43.9895 0.71875V32H37.5656V0.71875H43.9895ZM72.6195 15.6504V28.0469C72.1326 28.6341 71.3806 29.2715 70.3637 29.959C69.3467 30.6322 68.0362 31.2122 66.432 31.6992C64.8279 32.1862 62.8871 32.4297 60.6098 32.4297C58.5902 32.4297 56.7497 32.1003 55.0883 31.4414C53.4268 30.7682 51.9945 29.7871 50.7914 28.498C49.6026 27.209 48.6859 25.6335 48.0414 23.7715C47.3969 21.8952 47.0746 19.7539 47.0746 17.3477V15.3926C47.0746 12.9863 47.3826 10.8451 47.9984 8.96875C48.6286 7.09245 49.5238 5.50977 50.684 4.2207C51.8441 2.93164 53.2263 1.95052 54.8305 1.27734C56.4346 0.604167 58.2178 0.267578 60.1801 0.267578C62.9014 0.267578 65.1358 0.711589 66.8832 1.59961C68.6306 2.47331 69.9626 3.69076 70.8793 5.25195C71.8103 6.79883 72.3832 8.57487 72.598 10.5801H66.3461C66.1885 9.52018 65.8878 8.59635 65.4437 7.80859C64.9997 7.02083 64.3624 6.40495 63.5316 5.96094C62.7152 5.51693 61.6553 5.29492 60.352 5.29492C59.2777 5.29492 58.3181 5.51693 57.473 5.96094C56.6423 6.39062 55.9405 7.02799 55.3676 7.87305C54.7947 8.7181 54.3578 9.76367 54.057 11.0098C53.7562 12.2559 53.6059 13.7025 53.6059 15.3496V17.3477C53.6059 18.9805 53.7634 20.4271 54.0785 21.6875C54.3936 22.9336 54.8591 23.9863 55.475 24.8457C56.1052 25.6908 56.8786 26.3281 57.7953 26.7578C58.712 27.1875 59.779 27.4023 60.9965 27.4023C62.0134 27.4023 62.8585 27.3164 63.5316 27.1445C64.2191 26.9727 64.7706 26.765 65.1859 26.5215C65.6156 26.2637 65.9451 26.0202 66.1742 25.791V20.248H60.2875V15.6504H72.6195ZM92.8922 0.71875H99.316V21.3867C99.316 23.793 98.8004 25.8197 97.7691 27.4668C96.7522 29.1139 95.3414 30.3529 93.5367 31.1836C91.7464 32.0143 89.6839 32.4297 87.3492 32.4297C85.0146 32.4297 82.9378 32.0143 81.1188 31.1836C79.3141 30.3529 77.8961 29.1139 76.8648 27.4668C75.8479 25.8197 75.3395 23.793 75.3395 21.3867V0.71875H81.7848V21.3867C81.7848 22.7904 82.0068 23.9362 82.4508 24.8242C82.8948 25.7122 83.5322 26.3639 84.3629 26.7793C85.2079 27.1947 86.2034 27.4023 87.3492 27.4023C88.5237 27.4023 89.5191 27.1947 90.3355 26.7793C91.1663 26.3639 91.7965 25.7122 92.2262 24.8242C92.6702 23.9362 92.8922 22.7904 92.8922 21.3867V0.71875ZM127.882 0.71875V32H121.436L108.868 11.0312V32H102.423V0.71875H108.868L121.458 21.709V0.71875H127.882ZM160.155 26.9727V32H144.407V26.9727H160.155ZM146.491 0.71875V32H140.046V0.71875H146.491ZM168.504 0.71875V32H162.08V0.71875H168.504ZM178.787 0.71875V32H172.341V0.71875H178.787ZM191.248 14.082V19.1094H177.025V14.082H191.248ZM192.752 0.71875V5.76758H177.025V0.71875H192.752ZM215.28 26.9727V32H198.63V26.9727H215.28ZM200.735 0.71875V32H194.29V0.71875H200.735ZM213.11 13.459V18.3574H198.63V13.459H213.11ZM215.259 0.71875V5.76758H198.63V0.71875H215.259Z" fill="#A4080C"/>
</svg>
